<?xml version="1.0" encoding="UTF-8"?>
<svg id="isotype" xmlns="http://www.w3.org/2000/svg" version="1.1" viewBox="0 0 1000 1000">
  <!-- Generator: Adobe Illustrator 29.5.1, SVG Export Plug-In . SVG Version: 2.1.0 Build 141)  -->
  <path d="M488.7,187.3c-8.5,27.8-17.7,55.9-22.2,84.8-8,51.7-3.4,105.2,12,155.1,2.7,8.7,5.7,17.3,9,25.8,1.7,4.3,1,5.4,5.7,5.9,3.9.4,7.4.7,11,2.5,5.5,2.6,6.5.6,11.5-2.5,5.4-3.5,11.1-7,16.1-11.1,33.8-27.5,43.7-65.6,33.6-107.5-2.7-11.2-14.1-33.4-11.9-42.8,2.2-9.2,11-10.2,18.3-5.5,12.7,8.2,21.2,52,24.5,67.1l2.1-1.4c8.9-32.6,18.1-65.2,26.6-97.9,3.5-13.8,6.7-48.8,20.6-54.9,9-3.9,14.9,5.6,15,13.7,0,38.7-17.3,76-23.7,114,1.9-11,38.3-24.7,47.4-28.1,14.7-5.4,37.5-13.7,53.2-8.3,3.3,1.1,6.3,3.5,7.3,6.8,4.9,15.7-16,17.4-25.1,19.8-12.3,3.3-25,7.8-36.3,13.8-64.2,33.9-90.7,108.3-148.2,148.2-7.4,5.2-7.6,1-8.8,13.7-.2,1.3.5,1.8,1.3,2.7,3.5,3.7,49.7,18.1,57.3,19.6,43,8.4,75.5-20,112.4-36,31.2-13.5,61.1-18.2,95.1-18.2,13.4-23.6,31-34.8,58.9-31.9,57.1,5.8,60,88.2,3.5,101.4-28.6,6.7-58.5-12.6-64.5-41.2-51.9-5.5-95.3,24.8-139.7,46.1-.4,3.7,0,2.2,2.1,2.8,39.6,11.9,74.8,33.3,108.9,56.2,14.1,9.5,67,44.9,74.3,55.8,8.2,12.4,4.3,24.5-12.2,21.9-18-2.8-66.8-44.8-85.3-57.3-17.3-11.7-35.5-21.3-53.5-31.8-1.7.5-.4,3,0,4.2,5.3,15.8,21.4,61.1,7.3,73.7-4.9,4.4-12.9,4.5-17-1-4.5-5.9-5-25.3-6.8-33.8-5.7-27.1-17.5-54.3-44.6-64.4-32.8-12.2-70.5-16.7-102.8-31.6l-3.1.5c-4,2.9-4.5,4.7-4,9.4,1.7,14.6,10.7,37.1,14.4,52.8,5.4,22.7,6.3,45.7,17.2,66.7,14.6,28,43,49.2,69.3,65.7,6.4,4,12.8,7.8,19.4,11.4,7.7,4.3,16.9,6,24.2,11.1,4.6,3.2,6.1,8.3,3.8,13.5-2.1,4.8-6.9,8.4-12.1,9.1-8.1,1.1-15.9-3.9-22.9-7.3-12.7-6.1-25-12.8-37.1-20.1-4.3-2.7-8.4-6.2-12.9-8.5-8.9-6.2-17.5-12.9-25.6-20.2-4.1-3.7-8-7.5-11.8-11.4-1.9-1.9-3.7-3.9-5.5-5.9-.9-1-5.4-4.9-5.3-6.2-2.4,35.7-12.5,70.3-16.6,105.8-2.2,18.8-3.8,39.7-3,58.6.5,13.6,5.7,35.1,4.1,47.4-1.5,11.5-11.3,18.4-20.9,10-16.5-14.5-14.9-66-14-86.8,3.2-74.3,30.6-141.8,16.2-217.5-3.8-20-11.7-39.1-17.7-58.5-9.4.8-16.1-2.8-23.5-8-3.1-2.1-6.5-8.3-10.3-7.4-3.2.8-22.3,12.9-26.4,15.7-31,20.9-54.3,46.8-58.5,85.5-4.9,44.5,16,92.5-5.5,134.3,42.8,19.3,42.1,80.4-.8,98.6-76.5,32.5-101.7-92.2-26.1-102.4,17-36.8,1.3-77.4,1.6-115.8-23.5,21.7-47.9,43-76,59-18.8,10.7-66.2,33.3-86.8,30.4-11.7-1.6-13.5-11.6-6.4-20.2,7.3-8.8,47.2-19.8,60.7-26,32.7-15.1,60.5-37.1,84.8-63.4l13.9-18.9c-30.4,8.5-63.2,9.6-94,2.4-14.8-3.5-28.8-9.5-42.7-15.7-11.1-5-29.6-8.4-28.1-24.1,2-21.4,28.5-5.3,37.6-1.5,15.7,6.6,32.1,11.4,48.9,14,33.8,5.3,69.8,1.7,99.7-16,15.4-9.2,26.3-23,40.2-33.9,15.2-11.8,33.6-21.6,50-31.8.4-.8.5-3.7.3-3.9-.5-.6-12.8-3.4-15.7-4.6-9.5-3.7-19.2-7.8-28.6-12-46.4-20.9-68.5-50.3-123.2-34.2-10.8,3.2-40.6,19.9-47.6,6.4-12.8-24.9,38.6-32.3,53.6-36.7,2-.6,2.4.8,2-2.8-19.4-9.2-38.1-19.7-57.8-28.2-27.8-12-63.9-20.7-89.3-33.7-7.3-3.8-20.3-12.6-18.7-22,2.6-16.2,26.4-6.9,36.1-3.8,26.4,8.5,57.7,21.6,83.5,32.6,33.6,14.3,65.7,31.5,96.5,51-2.5-1.6-4.7-15-5.8-18.2-2.3-6.4-4.8-12.8-7.5-19-5.4-12.5-11.4-24.8-17.6-37-6.2-12.2-12.6-24.3-18.6-36.5-4.1-8.4-10.7-16.9-11.2-26.6-.3-7.4,3.5-16.5,11.8-17.3,6.9-.7,12.2,5.2,15.1,10.7,5.7,10.7,10.6,22,16.4,32.7,9,16.6,17.8,33.4,25.6,50.6,14.2,31,22.2,66.3,49.1,89.3,17.5,14.9,40.5,21.5,62.1,28.4l13.3-8.8c-11.1-27.8-19.5-58.5-23.4-88.3-8.8-67.2.6-133.3,26.5-195.5-24.1-12.9-32.5-45.6-22.7-70.3,9.6-24.3,36.6-38.2,62.1-32.2,62.1,14.5,54.8,103.1-7.1,107.5" style="fill: #001f3f;"/>
</svg>