<svg width="1365" height="490" viewBox="0 0 1365 490" fill="none" xmlns="http://www.w3.org/2000/svg">
<g clip-path="url(#clip0_304_348)">
<path d="M1366 170.532C1361.2 175.65 1355.18 173.958 1349.59 173.976C1318.45 174.077 1287.31 174.025 1256.17 174.024C1247.72 174.024 1246.4 175.576 1248.06 183.906C1250.8 197.599 1255.04 210.596 1263.94 221.804C1272.69 232.831 1284.34 238.333 1297.71 240.968C1308.42 243.078 1318.61 240.836 1328.52 236.947C1337.18 233.549 1344.44 227.98 1350.39 220.956C1355.72 214.66 1357.63 214.267 1363.54 219.971C1364.13 220.545 1364.8 221.045 1365.71 221.29C1366 223.371 1366 225.742 1366 228.556C1365.12 229.748 1363.85 230.318 1363.4 231.27C1355.3 248.525 1342.7 261.615 1325.95 270.399C1316.94 275.127 1307 277.249 1296.7 278.171C1285.19 279.201 1273.86 278.803 1262.76 275.95C1240.46 270.222 1223.06 257.696 1211.21 237.698C1199.17 217.374 1196.2 195.088 1198.16 172.208C1200.17 148.665 1208.95 127.653 1226.46 111.097C1238.48 99.7296 1252.88 92.7793 1269.2 90.0031C1285.77 87.1826 1302.25 87.1707 1318.36 92.7504C1342.55 101.133 1357.03 118.232 1363.04 142.872C1363.68 145.478 1364.55 148.027 1365.65 150.302C1366 156.688 1366 163.376 1366 170.532ZM1299.15 91.998C1296.65 91.8472 1294.16 91.6706 1291.66 91.5496C1252.37 89.6457 1219.97 111.376 1206.82 148.401C1200.78 165.409 1199.45 182.906 1202.09 200.621C1207.68 238.036 1231.37 267.996 1273 274.617C1310.24 280.538 1344.58 263.085 1360.19 229.814C1363.44 222.889 1363.38 222.721 1356.48 218.755C1355.88 219.516 1355.26 220.289 1354.65 221.072C1338.99 241.366 1313.29 249.461 1288.5 242.322C1255.58 232.845 1243.73 197.302 1244.5 171.308C1246.26 171.308 1248.04 171.307 1249.83 171.308C1285.49 171.323 1321.15 171.329 1356.81 171.372C1359.77 171.375 1362.27 171.663 1362.34 167.236C1363.02 126.203 1339.95 96.3815 1299.15 91.998Z" fill="white"/>
<path d="M758.534 1C759.67 6.09811 760.913 11.1952 760.922 16.2945C761.048 88.9354 761.012 161.577 761.003 234.218C761.001 244.784 764.657 253.134 774.672 258.012C778.913 260.078 780.501 265.106 778.858 270.292C777.583 274.315 774.163 274.027 770.86 274.023C747.368 273.992 723.876 273.934 700.385 274.088C696.981 274.11 693.754 273.121 693.346 270.188C692.871 266.779 693.972 262.961 695.164 259.595C695.705 258.065 697.957 256.839 699.697 256.086C708.317 252.353 710.816 244.683 710.851 236.634C711.112 176.823 711.165 117.009 710.823 57.1989C710.765 47.0368 708.35 37.1518 696.725 32.862C691.786 31.0392 692.994 26.0941 693.005 22.0534C693.014 18.494 695.382 17.1126 698.404 16.1984C712.841 11.8312 727.259 7.40477 741.67 2.95449C742.381 2.73487 742.962 2.09355 743.302 1.32429C748.023 1 753.045 1 758.534 1ZM714.068 127.5C714.067 139.164 714.073 150.828 714.063 162.492C714.043 186.987 714.038 211.481 713.977 235.975C713.952 246.123 711.011 254.987 701.056 259.407C695.657 261.804 695.202 265.333 696.393 270.401C722.873 270.401 749.283 270.401 775.63 270.401C777.033 265.293 776.075 261.894 770.901 259.512C762.384 255.592 758.655 248.123 758.054 239.013C757.823 235.526 757.847 232.018 757.847 228.52C757.842 155.87 757.85 83.2192 757.856 10.5686C757.856 8.62583 757.856 6.68307 757.856 3.7105C753.28 4.33688 749.286 4.40042 745.586 5.47452C730.412 9.8793 715.319 14.5641 700.22 19.2245C698.194 19.8498 695.481 19.7241 695.675 23.3122C695.842 26.3903 695.655 28.7873 699.482 30.2712C707.84 33.5129 712.156 40.2597 713.042 49.0677C713.591 54.5273 713.946 60.0287 713.979 65.5138C714.101 85.842 714.053 106.171 714.068 127.5Z" fill="white"/>
<path d="M706.464 491C701.844 486.247 702.997 480.481 702.991 474.961C702.963 450.641 702.977 426.322 702.98 402.003C702.981 394.988 703.957 393.897 710.799 394C726.104 394.232 723.941 391.363 730.538 407.049C737.251 423.012 743.856 439.021 750.527 455.002C750.818 455.699 751.293 456.319 752.303 458.019C755.072 451.297 757.507 445.319 759.993 439.363C765.675 425.751 771.38 412.148 777.079 398.542C778.424 395.332 780.771 393.816 784.32 393.95C787.979 394.087 791.648 393.975 795.312 393.982C799.055 393.989 801.012 395.861 801.014 399.615C801.026 427.932 801.091 456.25 800.865 484.565C800.85 486.499 798.613 488.414 797.705 490.669C793.977 491 789.952 491 785.76 490.669C782.758 488.517 781.853 485.994 781.905 482.591C782.092 470.132 782.004 457.669 781.95 445.207C781.943 443.56 781.537 441.915 781.24 439.711C780.453 440.569 780.169 440.758 780.053 441.021C772.694 457.677 765.348 474.339 758.001 491C754.308 491 750.615 491 746.753 490.711C745.322 488.731 743.696 487.202 742.863 485.321C739.755 478.304 736.954 471.151 733.949 464.087C730.556 456.112 727.068 448.177 723.622 440.225C722.308 441.955 722.048 443.5 722.043 445.046C722.005 454.86 722.061 464.674 722.009 474.487C721.978 480.156 723.239 486.087 719.001 491C714.977 491 710.952 491 706.464 491ZM770.68 455.127C775.13 444.325 779.581 433.522 784.031 422.72C784.39 422.808 784.749 422.897 785.107 422.985C785.107 444.198 785.107 465.411 785.107 486.754C789.645 486.754 793.727 486.754 797.963 486.754C797.963 456.788 797.963 427.099 797.963 397.045C793.591 397.045 789.596 397.302 785.651 396.967C782.237 396.677 780.618 397.972 779.376 401.066C774.353 413.579 769.075 425.99 763.919 438.449C760.138 447.583 756.399 456.733 752.283 466.748C751.221 464.375 750.53 462.914 749.905 461.424C741.539 441.465 733.213 421.489 724.764 401.565C724.057 399.898 722.646 397.426 721.369 397.301C716.318 396.806 711.189 397.098 706.138 397.098C706.138 427.384 706.138 456.978 706.138 486.627C710.637 486.627 714.83 486.627 719.21 486.627C719.21 465.268 719.21 444.338 719.21 422.088C720.326 424.312 720.951 425.4 721.437 426.548C729.478 445.56 737.663 464.514 745.405 483.647C747.151 487.963 750.111 486.847 753.065 487.059C755.872 487.26 757.939 487.003 759.183 483.623C762.631 474.255 766.589 465.075 770.68 455.127Z" fill="#E0E0E0"/>
<path d="M144.471 491C143.355 490.332 142.831 489.351 142.043 489.044C132.128 485.187 125.038 478.9 122.406 468.073C121.022 462.379 122.959 457.638 129.97 457.757C136.541 457.869 140.94 458.911 143.595 465.8C146.405 473.092 155.915 475.594 165.593 472.753C170.718 471.249 174.944 467.124 174.926 463.003C174.902 457.573 171.326 455.307 166.503 453.791C156.897 450.772 147.301 447.634 137.944 443.932C121.658 437.489 119.99 415.323 131.021 403.431C137.758 396.169 146.233 393.252 155.806 393.021C163.626 392.832 171.266 393.013 178.646 396.814C187.635 401.443 191.509 409.307 193.72 418.247C194.081 419.705 191.11 423.175 189.109 423.759C185.885 424.699 182.086 424.5 178.729 423.814C176.911 423.442 174.926 421.358 174.005 419.544C168.589 408.875 155.521 408.851 147.331 414.374C142.61 417.559 143.485 425.486 149.156 427.85C156.216 430.792 163.769 432.526 171.025 435.023C179.255 437.854 187.606 440.544 192.062 449.152C198.963 462.481 194.577 482.388 175.811 489.021C174.957 489.323 174.205 489.915 173.704 490.686C164.314 491 154.627 491 144.471 491ZM128.479 413.283C124.465 427.782 129.237 437.574 143.268 443.092C147.431 444.729 151.852 445.697 156.113 447.101C161.471 448.867 167.018 450.285 172.063 452.724C178.867 456.014 180.488 464.391 175.55 470.018C169.85 476.515 162.219 477.666 154.071 476.373C146.598 475.187 140.963 471.764 139.012 463.823C138.762 462.804 137.61 461.304 136.79 461.247C132.906 460.974 128.992 461.125 125.147 461.125C124.761 469.16 127.808 475.957 133.537 480.75C145.655 490.889 170.139 491.099 182.844 481.632C195.032 472.55 196.744 449.161 178.937 441.515C173.766 439.295 168.294 437.778 162.96 435.938C157.628 434.099 152.025 432.802 147.032 430.292C140.031 426.771 139.148 418.139 144.636 412.581C153.336 403.769 171.976 407.159 177.027 418.333C177.599 419.597 179.422 420.903 180.804 421.074C184.05 421.476 187.38 421.203 191.039 421.203C189.492 409.828 184.425 401.818 173.879 398.129C164.309 394.781 154.589 394.858 144.956 398.028C137.469 400.492 131.859 405.134 128.479 413.283Z" fill="#E0E0E0"/>
<path d="M379.468 491C378.355 490.332 377.833 489.353 377.047 489.043C366.194 484.769 357.767 473.81 357.964 464.233C358.053 459.922 360.192 458.283 364.397 457.902C371.22 457.283 376.185 458.536 379.19 465.798C381.934 472.429 388.836 473.929 395.233 473.797C401.058 473.677 406.759 471.862 409.695 465.748C411.482 462.027 410.323 457.384 406.285 455.871C397.602 452.618 388.697 449.962 379.912 446.977C366.481 442.413 360.185 434.461 360.085 422.532C359.96 407.768 367.798 398.463 382.235 394.511C394.949 391.031 407.743 391.884 419.052 400.007C425.562 404.684 428.368 411.386 428.988 419.135C429.248 422.383 427.634 424.074 424.286 424.023C421.455 423.98 418.48 424.554 415.835 423.853C413.487 423.231 410.296 421.691 409.563 419.763C405.689 409.582 391.302 408.579 383.288 414.374C378.212 418.045 378.949 425.188 385.157 427.844C392.181 430.849 399.795 432.443 406.997 435.074C414.714 437.894 422.729 440.587 427.058 448.472C435.618 464.064 428.665 482.982 411.748 488.716C410.581 489.111 409.514 489.804 408.7 490.679C399.312 491 389.624 491 379.468 491ZM420.281 445.176C413.156 442.098 406.095 438.857 398.884 435.995C393.646 433.917 387.965 432.848 382.92 430.416C376.122 427.139 375.051 419.3 379.653 413.514C386.07 405.444 407.914 404.986 412.357 418.137C412.763 419.338 413.979 421.05 414.945 421.137C418.782 421.484 422.668 421.28 426.785 421.28C425.512 412.31 422.166 405.701 415.302 401.176C403.753 393.563 383.81 394.149 372.687 402.405C358.516 412.923 359.938 433.522 375.484 441.698C378.257 443.156 381.294 444.178 384.298 445.115C391.123 447.244 398.07 448.997 404.84 451.282C410.073 453.048 413.801 456.451 413.792 462.552C413.784 467.96 410.233 472.603 404.442 474.93C390.995 480.332 378.893 475.02 373.752 461.362C369.533 461.362 365.272 461.362 361.032 461.362C360.333 471.723 366.201 481.015 376.721 485.265C388.656 490.087 400.92 490.08 412.691 484.896C429.083 477.678 432.891 458.377 420.281 445.176Z" fill="#E0E0E0"/>
<path d="M870.468 491C869.355 490.333 868.833 489.353 868.047 489.044C857.189 484.77 848.701 473.804 849.008 464.225C849.044 463.117 849.034 461.741 849.646 460.963C853.247 456.383 858.501 457.803 863.008 458.264C865.161 458.484 867.977 461.233 868.831 463.47C871.568 470.645 877.397 473.083 883.95 473.841C890.381 474.586 896.606 472.517 900.291 466.954C903.745 461.74 901.765 456.759 894.4 454.097C886.883 451.381 878.953 449.778 871.502 446.913C858.313 441.841 851.082 436.742 851.062 420.991C851.048 410.118 856.863 400.15 870.051 395.562C883.299 390.953 896.599 391.178 908.83 399.033C915.601 403.382 919.419 409.873 919.981 418.01C920.255 421.977 918.256 423.927 914.181 424.052C908.022 424.241 902.979 424.289 899.199 417.197C894.696 408.749 880.898 408.665 874.031 414.803C868.812 419.467 870.671 425.888 877.389 428.607C883.154 430.941 889.407 432.038 895.321 434.043C902.153 436.359 908.947 438.525 914.504 443.809C925.821 454.57 923.596 476.515 909.95 484.972C906.605 487.045 902.926 488.578 899.7 490.68C890.312 491 880.624 491 870.468 491ZM910.307 444.122C903.726 441.415 897.199 438.566 890.547 436.044C885.116 433.985 879.281 432.849 874.087 430.346C867.038 426.949 865.995 418.184 871.404 412.657C880.078 403.795 898.69 407.133 903.762 418.38C904.262 419.489 905.539 420.909 906.561 421C910.158 421.32 913.8 421.124 917.456 421.124C916.854 412.648 913.427 406.171 907.508 401.834C895.608 393.115 873.768 393.83 862.441 403.308C849.605 414.05 851.519 433.615 866.343 441.24C870.442 443.348 874.996 444.608 879.402 446.076C885.39 448.073 891.495 449.729 897.437 451.848C901.852 453.422 904.61 456.709 904.905 461.547C905.218 466.675 902.951 470.616 898.59 473.206C891.028 477.695 883.026 477.79 875.032 474.707C870.299 472.882 867.11 469.352 865.912 464.189C865.66 463.103 864.695 461.39 863.963 461.339C859.929 461.059 855.865 461.205 851.819 461.205C852.046 472.069 856.845 480.213 865.984 484.391C879.314 490.486 892.982 490.435 906.008 483.745C921.128 475.978 923.35 456.148 910.307 444.122Z" fill="#E0E0E0"/>
<path d="M596.468 491C591.781 486.071 593.012 480.134 593.003 474.456C592.968 450.131 592.984 425.805 592.993 401.479C592.995 395.159 594.128 394.004 600.348 393.999C616.01 393.985 631.672 393.99 647.333 393.996C653.322 393.998 654.987 395.632 655.008 401.482C655.011 402.482 655.011 403.481 655.008 404.481C654.989 410.828 653.875 411.994 647.695 412.005C638.031 412.022 628.361 412.214 618.706 411.925C613.681 411.775 611.469 413.16 611.967 418.917C612.21 421.729 612.133 424.585 611.979 427.409C611.761 431.427 613.475 433.099 617.53 433.034C626.525 432.891 635.523 432.981 644.52 432.993C650.847 433.001 651.975 434.122 652.007 440.343C652.054 449.576 651.619 450.011 642.337 450.011C634.006 450.011 625.674 450.093 617.345 449.974C613.566 449.92 611.871 451.471 611.981 455.275C612.102 459.437 612.103 463.607 611.981 467.769C611.869 471.61 613.642 473.066 617.389 473.027C627.718 472.919 638.049 472.96 648.378 473.022C649.948 473.031 651.516 473.466 652.721 474.402C638.088 475.1 623.818 475.1 609.313 475.1C609.313 465.745 609.313 456.842 609.313 447.224C622.612 447.224 635.66 447.224 648.763 447.224C648.763 442.936 648.763 439.369 648.763 435.298C635.533 435.298 622.609 435.298 609.529 435.298C609.529 426.262 609.529 417.743 609.529 408.829C623.883 408.829 637.816 408.829 651.728 408.829C651.728 404.718 651.728 401.025 651.728 397.431C632.724 397.431 614.159 397.431 595.5 397.431C595.5 427.372 595.5 456.953 595.5 486.747C614.657 486.747 633.538 486.747 652.561 486.747C652.848 482.528 653.114 478.607 653.381 474.686C656.401 476.903 657.199 484.856 654.686 487.859C653.959 488.728 653.167 489.543 652.702 490.692C634.312 491 615.624 491 596.468 491Z" fill="#E0E0E0"/>
<path d="M270.464 491C265.549 485.751 266.402 479.339 267.157 473.498C269.004 459.205 263.4 447.672 255.911 436.22C248.887 425.481 242.757 414.147 236.484 402.934C233.102 396.889 235.045 394.719 241.665 393.829C251.943 392.446 257.505 396.81 261.623 405.835C265.605 414.561 271.051 422.619 276.426 431.966C279.288 427.028 281.642 422.957 284.004 418.89C287.963 412.075 292.082 405.347 295.821 398.414C297.642 395.035 300.217 393.899 303.76 393.98C306.588 394.046 309.423 393.907 312.248 394.013C316.9 394.188 319.049 397.542 316.8 401.514C309.99 413.544 302.95 425.443 296.099 437.449C292.913 443.034 289.878 448.71 286.958 454.438C286.264 455.8 286.07 457.536 286.052 459.105C285.964 466.927 285.849 474.756 286.087 482.572C286.191 485.989 285.219 488.502 282.702 490.671C278.977 491 274.952 491 270.464 491ZM263.944 416.57C260.837 411.056 257.814 405.491 254.558 400.066C253.806 398.815 252.313 397.284 251.061 397.188C246.519 396.842 241.934 397.052 236.702 397.052C237.663 398.805 238.178 399.802 238.745 400.769C246.748 414.418 254.447 428.26 262.888 441.632C267.702 449.259 270.263 456.943 269.513 466.013C268.945 472.893 269.401 479.858 269.401 486.784C274.502 486.784 278.767 486.784 283.644 486.784C283.644 476.709 283.495 466.909 283.742 457.12C283.81 454.435 284.541 451.483 285.86 449.162C294.997 433.091 304.377 417.157 313.653 401.165C314.274 400.095 314.688 398.906 315.5 397.102C311.535 397.102 308.223 397.367 304.973 397.031C301.313 396.653 299.279 397.983 297.543 401.235C292.522 410.635 287.151 419.847 281.878 429.112C280.268 431.941 278.532 434.7 276.375 438.289C272.033 430.728 268.156 423.975 263.944 416.57Z" fill="#E0E0E0"/>
<path d="M502.463 491C497.788 486.07 499.02 480.136 499.008 474.461C498.968 455.307 498.887 436.151 499.08 416.999C499.12 412.981 497.881 411.707 493.935 411.93C488.622 412.231 483.278 412.081 477.95 411.982C473.207 411.894 471.179 409.799 471.002 405.065C470.947 403.568 471.018 402.067 470.989 400.568C470.903 396.077 473.099 393.976 477.582 393.983C497.902 394.015 518.222 393.997 538.542 393.996C541.693 393.996 545.084 393.81 546.154 397.713C547.212 401.574 548.473 405.598 544.566 408.767C543.927 404.751 543.927 401.132 543.927 397.322C520.33 397.322 497.428 397.322 474.282 397.322C474.282 401.178 474.282 404.748 474.282 408.928C483.588 408.928 492.644 408.928 502.179 408.928C502.179 435.267 502.179 461.002 502.179 486.657C507.07 486.657 511.451 486.657 516.181 486.657C516.181 460.629 516.181 435.018 516.181 409.39C525.788 409.39 535.032 409.39 544.277 409.39C542.775 410.261 541.313 411.788 539.763 411.884C534.628 412.202 529.446 412.247 524.311 411.928C520.173 411.67 518.87 412.987 518.91 417.236C519.114 439.016 518.931 460.799 519.08 482.58C519.104 485.994 518.191 488.494 515.699 490.672C511.642 491 507.285 491 502.463 491Z" fill="#E0E0E0"/>
<path d="M1 219.469C1.66207 218.522 2.7054 218.179 2.93034 217.546C8.30926 202.4 19.3378 192.691 34.4693 189.561C47.1005 186.947 60.1878 188.255 71.2818 196.753C83.3338 205.984 89.1336 218.465 88.8905 233.31C88.5243 255.664 72.8211 272.098 52.1984 276.119C31.7861 280.098 7.97753 266.515 2.73505 246.378C2.63248 245.984 2.00977 245.726 1.31487 245.702C0.999997 237.312 0.999997 228.625 1 219.469ZM70.1826 200.261C51.6516 186.192 26.1251 189.501 11.793 207.83C-1.47945 224.804 1.87883 250.72 19.1649 264.719C35.966 278.326 62.4196 275.78 75.9176 259.258C90.7643 241.085 88.5362 215.79 70.1826 200.261Z" fill="#F3F9E0"/>
<path d="M980.958 92.9608C985.474 91.622 989.503 89.6591 993.717 89.1096C1006.4 87.4562 1018.94 87.4284 1031.06 92.8808C1041.79 97.7071 1049.31 105.626 1055.17 115.474C1055.42 115.891 1055.8 116.232 1056.13 116.624C1061.76 111.567 1067.05 106.136 1073.02 101.603C1083.12 93.939 1094.51 89.6593 1107.43 88.8122C1117.77 88.1335 1127.71 88.4226 1137.6 91.8623C1152.32 96.9781 1161.43 107.41 1167 121.451C1170.9 131.278 1171.97 141.61 1172 152.064C1172.06 180.061 1171.99 208.058 1172.03 236.055C1172.05 245.578 1175.77 252.913 1184.68 257.279C1189.63 259.707 1191.99 265.299 1189.76 270.102C1188.93 271.887 1186.1 273.832 1184.17 273.852C1159.67 274.104 1135.17 274.11 1110.68 273.849C1108.64 273.827 1105.21 271.706 1104.89 270.074C1104.3 267.073 1104.56 263.009 1106.24 260.665C1108.61 257.357 1112.67 255.286 1115.89 252.549C1120.28 248.814 1121.91 243.71 1121.93 238.213C1122.04 210.05 1122.26 181.882 1121.81 153.726C1121.68 145.436 1119.98 137.199 1113.97 130.349C1104.62 119.697 1089.32 120.023 1078.75 125.97C1074.13 128.568 1069.73 131.934 1066.1 135.773C1063.89 138.121 1062.22 142.021 1062.19 145.243C1061.9 174.404 1061.97 203.568 1062.08 232.731C1062.09 236.455 1062.7 240.225 1063.45 243.886C1064.88 250.827 1069.83 254.842 1075.77 257.985C1080.21 260.334 1081.8 264.039 1080.59 269.003C1079.67 272.753 1077.65 274.144 1073.62 274.112C1049.96 273.92 1026.29 273.939 1002.63 274.102C999.045 274.126 996.311 273.233 995.088 269.962C993.512 265.751 995.316 259.613 998.777 258.091C1009.25 253.484 1012.29 245.358 1012.12 234.452C1011.71 207.129 1012.06 179.794 1011.93 152.464C1011.9 144.91 1009.95 137.52 1005.6 131.433C999.73 123.231 990.796 120.757 981.179 122.149C970.246 123.732 961.166 129.126 954.536 138.091C953.188 139.913 952.136 142.465 952.124 144.687C951.966 174.183 951.773 203.683 952.152 233.175C952.286 243.625 954.639 253.515 966.193 258.115C970.044 259.649 971.424 265.412 969.862 270.324C968.569 274.391 965.126 274.033 961.843 274.03C939.179 274.008 916.514 273.974 893.851 274.063C890.224 274.078 886.706 274.06 885.126 270.183C883.35 265.826 885.345 258.918 889.567 257.243C900.899 252.746 902.688 242.996 902.837 233.039C903.253 205.048 903.101 177.047 902.874 149.052C902.831 143.746 901.665 138.399 900.566 133.166C899.382 127.526 895.548 123.312 890.463 121.378C884.302 119.035 885.02 114.464 884.969 109.754C884.921 105.3 888.312 104.838 891.459 103.847C906.751 99.0313 921.967 93.9699 937.326 89.3822C940.549 88.4194 944.44 88.4031 947.673 89.2645C949.491 89.7488 951.48 92.7769 951.826 94.9127C952.484 98.9724 951.984 103.215 952.036 107.38C952.053 108.767 952.287 110.152 952.56 112.963C961.089 103.671 970.025 97.1411 980.958 92.9608ZM887.814 113.273C888.535 114.56 888.963 116.612 890.022 117.018C900.942 121.205 905.079 129.956 905.208 140.637C905.601 173.123 905.676 205.614 905.589 238.102C905.564 247.315 902.041 255.242 893.115 259.246C887.808 261.627 887.245 265.223 888.494 270.345C914.609 270.345 940.647 270.345 967.062 270.345C966.597 266.847 968.946 263.004 964.338 260.994C953.027 256.059 949.212 246.8 949.235 235.188C949.296 203.858 949.262 172.528 949.356 141.199C949.36 139.682 949.841 137.856 950.762 136.702C956.586 129.411 963.673 123.781 972.674 120.801C994.789 113.482 1011.34 123.582 1014.73 146.535C1014.97 148.177 1015.05 149.856 1015.06 151.518C1015.21 179.679 1015.21 207.842 1015.53 236.001C1015.65 247.41 1011.97 256.234 1000.93 260.848C996.969 262.503 998.232 265.882 998.531 268.572C998.626 269.428 1001.49 270.566 1003.09 270.576C1026.92 270.721 1050.75 270.7 1074.58 270.703C1075.37 270.703 1076.15 270.533 1076.86 270.452C1078.09 263.098 1078.1 263.082 1072.47 259.955C1066.57 256.682 1061.79 252.409 1060.48 245.451C1059.78 241.706 1059.32 237.856 1059.3 234.05C1059.15 203.054 1059.12 172.058 1059.13 141.062C1059.13 139.683 1059.46 138.01 1060.27 136.973C1066.13 129.491 1073.22 123.582 1082.39 120.525C1102.22 113.914 1119.37 122.936 1123.65 142.329C1124.33 145.404 1124.82 148.593 1124.83 151.732C1124.97 180.894 1124.99 210.056 1125.03 239.218C1125.04 248.633 1120.66 255.331 1112.45 259.778C1106.69 262.893 1106.43 263.818 1108.36 270.37C1134.44 270.37 1160.52 270.37 1186.96 270.37C1186.66 266.636 1188.69 262.854 1183.8 260.743C1172.77 255.975 1168.74 247.087 1168.88 235.458C1169.11 216.296 1169.04 197.128 1168.88 177.965C1168.78 165.143 1168.92 152.273 1167.85 139.517C1165.84 115.592 1151.61 98.2426 1130.93 93.167C1103.94 86.5401 1074.75 97.6493 1058.79 120.614C1057.89 121.913 1056.94 123.177 1055.79 124.749C1054.79 122.643 1054.03 121.012 1053.25 119.392C1046.44 105.326 1035.61 95.9615 1020.21 92.9371C992.739 87.5427 970.496 96.8886 952.824 118.104C951.739 119.406 950.681 120.732 949.553 122.118C949.148 121.567 948.987 121.449 948.986 121.331C948.943 114.5 948.908 107.669 948.884 100.838C948.852 91.4664 947.382 90.3571 938.089 92.7432C937.124 92.9911 936.183 93.3323 935.229 93.6266C920.764 98.0915 906.334 102.671 891.808 106.929C888.655 107.854 887.269 109.197 887.814 113.273Z" fill="white"/>
<path d="M537.351 353.019C533.909 352.351 530.93 351.692 527.955 351.017C524.66 350.268 522.938 348.355 522.958 344.814C523.023 332.984 522.935 321.153 523.002 309.323C523.035 303.546 525.755 302.118 531.042 304.415C537.341 307.151 543.706 309.824 550.239 311.91C563.405 316.114 571.946 308.441 578.786 299.056C583.381 292.751 586.251 285.196 589.954 278.232C592.875 272.74 590.623 267.876 588.422 262.876C577.752 238.641 567.192 214.359 556.541 190.116C546.727 167.777 536.886 145.45 526.97 123.155C524.248 117.037 519.966 112.333 513.81 109.314C508.427 106.673 506.735 102.891 508.024 97.2037C508.807 93.7523 511.311 92.9107 514.606 92.9392C526.769 93.0442 538.933 92.9814 551.097 92.9814C564.26 92.9814 577.424 93.0185 590.587 92.9527C593.637 92.9374 596.973 92.9579 597.654 96.4531C598.377 100.169 599.379 104.432 595.252 107.285C594.979 107.474 594.752 107.73 594.473 107.908C581.038 116.485 580.527 117.439 586.269 131.507C595.422 153.933 604.879 176.235 614.215 198.586C615.204 200.952 616.247 203.295 617.672 206.592C619.308 203.379 620.875 200.878 621.912 198.175C629.893 177.373 637.989 156.609 645.528 135.646C647.422 130.381 648.046 124.446 648.128 118.802C648.206 113.395 643.656 110.774 639.132 109.097C633.9 107.158 632.316 103.588 632.93 98.3475C633.336 94.8761 634.953 92.9982 638.446 92.9928C656.109 92.9657 673.772 92.8858 691.431 93.124C693.216 93.1481 696.2 94.9202 696.498 96.3314C697.198 99.6403 698.641 103.659 695.02 106.41C692.205 108.549 689.252 110.556 686.175 112.293C679.315 116.166 676.221 123.054 673.371 129.56C665.136 148.357 657.588 167.456 649.936 186.504C638.878 214.03 628.141 241.686 616.927 269.148C609.951 286.232 602.781 303.266 594.892 319.94C588.124 334.245 577.928 345.9 562.054 350.237C554.3 352.356 545.915 352.165 537.351 353.019ZM634.944 214.394C639.353 203.438 643.693 192.454 648.186 181.533C655.718 163.23 663.247 144.924 670.979 126.706C674.632 118.1 679.786 110.312 688.678 106.532C694.039 104.253 694.892 101.041 693.678 96.1103C674.44 96.1103 655.254 96.1103 635.725 96.1103C636.918 99.3552 633.915 102.973 638.65 105.093C651.854 111.005 655.063 117.724 650.362 131.331C644.391 148.614 637.69 165.647 631.216 182.755C627.064 193.728 622.752 204.641 618.159 216.492C617.386 214.915 617.02 214.253 616.728 213.559C610.595 198.994 604.355 184.473 598.378 169.845C592.339 155.068 586.203 140.312 580.801 125.298C577.353 115.715 580.244 110.234 589.072 106.296C595.58 103.393 595.666 103.208 593.849 96.0058C566.45 96.0058 539.042 96.0058 511.711 96.0058C510.415 101.196 511.768 104.124 516.484 107.057C521.502 110.178 525.756 115.063 529.239 119.963C532.561 124.638 534.643 130.244 536.959 135.576C553.987 174.779 570.858 214.052 587.945 253.229C596.88 273.718 597.033 273.652 586.059 293.927C573.496 317.142 557.691 322.04 534.283 309.963C532.805 309.201 531.383 308.33 529.913 307.554C528.815 306.975 527.681 306.466 526.142 305.723C526.142 318.941 526.062 331.571 526.265 344.196C526.286 345.464 527.793 347.488 528.998 347.842C550.598 354.202 572.566 346.88 585.518 328.446C590.359 321.556 594.54 313.994 597.771 306.219C610.346 275.965 622.418 245.503 634.944 214.394Z" fill="white"/>
<path d="M515.022 165.764C514.962 172.564 513.496 174.022 507.147 174.022C472.817 174.025 438.487 174.024 404.157 174.025C396.796 174.025 396.363 174.071 397.109 181.175C398.946 198.657 404.425 214.758 417.708 227.048C426.314 235.012 436.646 239.649 448.458 241.023C468.235 243.323 484.674 236.72 498.562 222.91C499.384 222.094 500.294 221.299 500.878 220.324C502.918 216.92 505.275 214.692 509.556 216.888C514.117 219.227 516.392 223.012 514.27 227.125C510.383 234.66 506.073 242.027 501.338 249.059C495.395 257.885 486.656 263.728 477.565 268.872C468.371 274.074 458.521 277.608 447.837 277.976C440.674 278.223 433.494 278.137 426.326 277.999C410.608 277.698 396.652 271.807 383.905 263.274C367.687 252.417 357.753 236.713 351.747 218.363C346.345 201.855 346.072 185.021 347.846 167.897C349.342 153.463 353.914 140.236 361.493 128.026C370.857 112.939 383.8 101.919 400.196 94.9845C413.179 89.4941 426.849 87.7493 440.75 88.0611C455.649 88.3953 470.114 91.2619 482.87 99.4383C497.268 108.668 506.514 122.069 510.844 138.43C513.15 147.145 513.687 156.329 515.022 165.764ZM417.21 231.302C399.106 215.518 394.223 194.465 392.839 171.316C395.268 171.316 397.069 171.316 398.87 171.316C421.859 171.323 444.848 171.333 467.836 171.335C480.996 171.336 494.156 171.297 507.316 171.341C509.877 171.349 511.871 171.263 511.847 167.778C511.682 144.162 505.505 122.987 486.926 107.015C474.221 96.0916 458.892 92.4739 442.547 91.4448C403.409 88.9809 369.629 110.106 356.339 146.339C347.684 169.933 347.366 194.008 355.192 217.89C366.512 252.437 393.996 272.98 431.332 275.429C464.98 277.635 495.031 260.193 509.763 229.906C513.007 223.237 512.965 223.089 506.659 218.96C482.87 251.723 439.478 250.342 417.21 231.302Z" fill="white"/>
<path d="M856.025 190C856.025 204.82 855.752 219.149 856.171 233.458C856.319 238.511 857.306 243.936 859.506 248.406C861.198 251.845 865.133 254.437 868.535 256.709C872.331 259.243 875.425 261.61 875.095 266.83C874.751 272.258 873.202 274.02 867.556 274.022C844.409 274.029 821.263 273.977 798.117 274.072C794.33 274.088 790.6 274.222 789.067 269.977C787.497 265.631 789.337 258.977 793.315 257.416C805.649 252.576 806.729 242 806.865 231.355C807.199 205.215 807.091 179.068 806.882 152.926C806.835 147.103 805.699 141.282 804.961 135.474C804.057 128.354 799.882 123.69 793.468 120.964C788.048 118.661 789.058 114.005 788.958 109.66C788.868 105.768 791.734 104.86 794.571 103.988C810.348 99.133 826.103 94.2003 841.954 89.5989C845.032 88.7055 848.559 88.7034 851.774 89.1123C855.552 89.5926 856.074 92.6818 856.067 96.0823C855.994 127.221 856.025 158.361 856.025 190ZM809.794 208.5C809.794 216.493 809.628 224.49 809.833 232.478C810.155 245.039 807.112 255.603 794.341 261.035C790.521 262.66 792.087 266.202 792.265 268.93C792.308 269.593 795.121 270.559 796.664 270.567C820.31 270.682 843.956 270.664 867.602 270.663C868.724 270.663 869.845 270.54 871.03 270.47C872.439 265.52 871.871 262.104 866.745 259.787C860.811 257.105 856.126 252.693 854.762 245.957C853.877 241.586 853.257 237.077 853.245 232.628C853.127 188.001 853.161 143.373 853.152 98.7448C853.151 96.7913 853.151 94.8379 853.151 91.6942C831.306 93.8036 812.293 103.463 791.614 108.093C792.894 111.588 789.65 115.5 794.401 117.319C804.378 121.14 808.822 129.068 809.062 139.085C809.609 161.883 809.586 184.694 809.794 208.5Z" fill="white"/>
<path d="M211.045 270.015C209.501 271.019 207.963 272.888 206.412 272.899C180.101 273.079 153.788 273.129 127.48 272.842C125.301 272.818 121.975 270.608 121.248 268.647C119.98 265.23 121.055 261.452 124.513 259.115C125.427 258.496 126.594 258.266 127.587 257.747C138.111 252.257 142.071 243.337 142.042 231.748C141.895 174.296 142.002 116.843 141.898 59.3906C141.891 55.5399 141.066 51.6527 140.292 47.8492C138.665 39.8453 133.111 35.2847 126.075 32.0056C120.588 29.4482 119.337 24.9886 122.638 19.3887C123.065 19.7763 123.07 19.9905 123.134 20.6243C122.248 26.3454 124.156 29.3735 129.422 31.5558C137.718 34.9935 142.424 41.8298 143.081 50.8964C143.695 59.3514 144.122 67.8401 144.137 76.3149C144.23 127.596 144.109 178.876 144.228 230.157C144.258 243.105 140.888 254.053 128.083 259.58C122.621 261.938 123.024 265.621 123.77 270.267C124.789 270.369 125.584 270.518 126.378 270.518C153.351 270.544 180.323 270.562 207.295 270.548C208.267 270.548 209.238 270.221 210.418 270.027C210.627 270.008 211.045 270.015 211.045 270.015Z" fill="#ECEDE7"/>
<path d="M343.824 28.0066C341.966 29.3359 340.29 31.2961 338.221 31.891C325.839 35.4514 315.026 41.7214 305.929 50.697C285.284 71.0686 264.847 91.6521 244.365 112.189C242.111 114.448 241.597 116.417 243.861 119.732C262.223 146.619 280.157 173.796 298.408 200.759C306.378 212.532 314.594 224.149 323.046 235.58C330.525 245.695 340.069 253.427 351.942 257.973C357.966 260.279 359.749 264.773 356.278 270.751C355.749 270.733 355.46 270.38 355.631 270.014C357.034 264.253 354.904 261.504 349.665 259.361C336.215 253.857 325.886 244.244 317.751 232.325C295.815 200.181 273.959 167.982 252.103 135.784C247.558 129.088 243.147 122.302 238.449 115.217C260.405 93.0788 281.942 71.0952 303.812 49.4487C312.03 41.3142 321.929 35.4181 332.822 31.3473C335.9 30.197 339.005 29.1177 342.385 28.0059C343.056 28.0061 343.44 28.0064 343.824 28.0066Z" fill="white"/>
<path d="M211.435 269.851C211.044 270.015 210.625 270.007 210.435 269.615C209.849 266.008 211.658 262.213 207.068 260.25C194.443 254.851 189.731 244.65 189.806 231.459C189.925 210.313 189.804 189.165 189.849 168.019C189.853 166.599 189.936 164.761 190.774 163.831C195.734 158.326 200.928 153.033 206.209 147.494C207.162 148.878 207.742 149.686 208.288 150.516C233.802 189.285 259.288 228.071 284.905 266.771C286.002 268.429 288.285 270.355 290.032 270.371C311.839 270.566 333.649 270.43 355.458 270.379C355.458 270.379 355.748 270.732 355.904 270.899C354.545 271.716 353.033 272.924 351.514 272.934C331.54 273.06 311.561 273.207 291.594 272.807C288.705 272.749 284.798 270.581 283.18 268.17C267.302 244.505 251.789 220.595 236.216 196.726C227.07 182.709 218.024 168.628 208.883 154.608C207.206 152.036 205.283 150.718 202.65 153.827C199.573 157.46 196.167 160.817 193.138 164.487C192.324 165.474 192.06 167.164 192.057 168.533C191.995 190.838 191.808 213.146 192.115 235.448C192.248 245.165 196.607 253.19 205.832 257.091C212.166 259.77 212.726 264.118 211.435 269.851Z" fill="#F1F2EB"/>
<path d="M211.106 18.9671C214.829 23.1597 213.754 29.4953 208.605 31.7898C201.548 34.935 195.539 38.9539 193.578 46.9907C192.889 49.8117 192.123 52.7151 192.111 55.5839C191.999 82.4098 192.043 109.236 192.051 136.063C192.051 136.512 192.17 136.961 192.388 138.51C200.7 129.711 208.476 121.477 216.257 113.248C217.056 112.401 217.886 111.584 218.699 110.75C231.446 97.6673 244.325 84.7095 256.88 71.4461C262.715 65.2822 268.323 58.8159 273.313 51.9616C279.487 43.481 277.398 36.8367 268.061 32.5926C261.742 29.7205 260.376 25.9399 263.652 19.3217C264.069 19.4062 263.97 19.8422 263.907 20.3007C263.843 23.4 263.843 26.0409 263.843 28.6241C265.459 29.2032 266.729 29.5951 267.949 30.1056C279.287 34.8485 281.938 42.3419 275.205 52.6011C271.486 58.268 266.994 63.5182 262.317 68.4507C239.167 92.8675 215.841 117.117 192.565 141.415C191.851 142.161 191.014 142.79 190.195 143.508C190.195 113.039 189.987 82.9245 190.31 52.8154C190.419 42.6314 196.174 35.4485 205.209 30.8159C211.54 27.5695 211.726 26.9153 210.17 19.409C210.532 19.038 210.801 18.9487 211.106 18.9671Z" fill="white"/>
<path d="M860.371 38.7953C862.372 54.3011 854.869 66.8805 842.556 71.0216C825.414 76.7872 808.493 70.7911 802.351 58.4451C793.842 41.3439 799.313 21.3546 821.59 15.0389C832.524 11.9392 842.633 14.7071 851.061 21.8236C855.941 25.9444 859.682 31.5118 860.371 38.7953ZM846.619 22.7985C845.357 21.9951 844.163 21.046 842.821 20.4115C831.868 15.2331 821.411 16.3569 811.784 23.5186C803.147 29.9449 800.417 38.8714 802.49 49.2102C804.768 60.5748 814.455 68.5506 827.079 69.8797C839.488 71.1863 850.746 65.0891 855.367 54.5589C860.284 43.356 857.393 32.2508 846.619 22.7985Z" fill="#F1F2EB"/>
<path d="M210.892 18.5794C210.8 18.9496 210.531 19.0388 209.698 19.4268C182.055 19.6362 155.011 19.6454 127.968 19.6955C126.337 19.6985 124.707 20.0275 123.076 20.2048C123.071 19.9907 123.066 19.7765 123.016 19.244C123.641 18.6186 124.312 18.0426 124.982 18.043C153.548 18.0601 182.113 18.1286 210.892 18.5794Z" fill="#FDFEF8"/>
<path d="M263.969 19.8431C263.969 19.8431 264.067 19.4071 264.027 19.1873C264.641 18.6462 265.296 18.0438 265.95 18.0439C291.181 18.0492 316.412 18.1095 341.79 18.8064C341.937 19.4502 342.014 19.9435 341.556 19.8296C315.388 19.7581 289.679 19.8006 263.969 19.8431Z" fill="#FDFEF8"/>
<path d="M342.013 19.9427C342.013 19.9427 341.936 19.4494 341.977 19.2031C342.668 21.692 343.318 24.4271 343.895 27.584C343.439 28.0055 343.055 28.0053 342.337 27.56C342.006 24.7242 342.009 22.3334 342.013 19.9427Z" fill="#E6E7E0"/>
<path d="M1299.61 92.0287C1339.95 96.3811 1363.02 126.202 1362.34 167.236C1362.27 171.662 1359.77 171.375 1356.81 171.371C1321.15 171.328 1285.49 171.323 1249.83 171.308C1248.04 171.307 1246.26 171.308 1244.5 171.308C1243.73 197.302 1255.58 232.844 1288.5 242.322C1313.29 249.461 1338.99 241.366 1354.65 221.072C1355.26 220.289 1355.88 219.516 1356.48 218.755C1363.38 222.721 1363.44 222.889 1360.19 229.814C1344.58 263.085 1310.24 280.537 1273 274.616C1231.37 267.996 1207.68 238.036 1202.09 200.621C1199.45 182.905 1200.78 165.408 1206.82 148.4C1219.97 111.375 1252.37 89.6453 1291.66 91.5492C1294.16 91.6702 1296.65 91.8468 1299.61 92.0287ZM1258.51 157.661C1278.55 157.661 1298.58 157.661 1318.78 157.661C1319.41 144.791 1318.11 133.317 1313.05 122.531C1306.25 108.034 1292.58 101.728 1277.07 105.697C1258.92 110.344 1242.78 136.438 1245.16 157.661C1249.25 157.661 1253.38 157.661 1258.51 157.661Z" fill="white"/>
<path d="M714.067 127C714.052 106.172 714.1 85.8424 713.978 65.5143C713.945 60.0292 713.59 54.5277 713.041 49.0682C712.154 40.2601 707.839 33.5133 699.48 30.2717C695.654 28.7877 695.841 26.3908 695.674 23.3126C695.479 19.7245 698.193 19.8503 700.219 19.2249C715.317 14.5645 730.411 9.87974 745.585 5.47496C749.285 4.40085 753.279 4.33732 757.855 3.71094C757.855 6.6835 757.855 8.62626 757.855 10.569C757.849 83.2196 757.841 155.87 757.846 228.521C757.846 232.019 757.822 235.526 758.052 239.013C758.654 248.123 762.383 255.592 770.899 259.513C776.074 261.895 777.032 265.294 775.628 270.401C749.282 270.401 722.871 270.401 696.392 270.401C695.201 265.333 695.656 261.805 701.054 259.408C711.01 254.988 713.951 246.123 713.976 235.976C714.037 211.482 714.042 186.987 714.062 162.493C714.072 150.829 714.066 139.165 714.067 127Z" fill="white"/>
<path d="M770.511 455.474C766.588 465.075 762.63 474.256 759.182 483.624C757.938 487.003 755.87 487.26 753.064 487.059C750.11 486.847 747.15 487.964 745.404 483.647C737.662 464.514 729.477 445.56 721.436 426.548C720.95 425.401 720.325 424.312 719.209 422.088C719.209 444.338 719.209 465.268 719.209 486.628C714.829 486.628 710.636 486.628 706.137 486.628C706.137 456.978 706.137 427.385 706.137 397.098C711.188 397.098 716.317 396.807 721.368 397.301C722.645 397.426 724.056 399.899 724.763 401.565C733.212 421.489 741.538 441.466 749.904 461.425C750.529 462.914 751.22 464.376 752.282 466.748C756.398 456.734 760.137 447.583 763.918 438.45C769.074 425.99 774.351 413.579 779.375 401.067C780.616 397.973 782.236 396.677 785.65 396.967C789.595 397.302 793.59 397.045 797.962 397.045C797.962 427.099 797.962 456.789 797.962 486.755C793.726 486.755 789.644 486.755 785.106 486.755C785.106 465.411 785.106 444.198 785.106 422.985C784.748 422.897 784.389 422.809 784.03 422.72C779.58 433.523 775.129 444.325 770.511 455.474Z" fill="#E0E0E0"/>
<path d="M128.638 412.923C131.858 405.134 137.468 400.492 144.955 398.028C154.588 394.857 164.308 394.781 173.878 398.128C184.424 401.817 189.491 409.827 191.038 421.202C187.379 421.202 184.049 421.475 180.803 421.073C179.421 420.902 177.598 419.597 177.026 418.332C171.975 407.158 153.335 403.769 144.635 412.58C139.147 418.138 140.03 426.771 147.031 430.291C152.024 432.802 157.627 434.099 162.959 435.938C168.293 437.777 173.765 439.295 178.935 441.515C196.743 449.161 195.031 472.55 182.843 481.632C170.138 491.099 145.654 490.889 133.536 480.75C127.807 475.957 124.76 469.159 125.146 461.125C128.991 461.125 132.905 460.974 136.789 461.246C137.609 461.304 138.761 462.804 139.011 463.823C140.962 471.763 146.597 475.187 154.07 476.373C162.218 477.666 169.849 476.515 175.549 470.018C180.487 464.39 178.866 456.013 172.062 452.723C167.017 450.284 161.47 448.866 156.112 447.1C151.851 445.696 147.43 444.728 143.267 443.091C129.236 437.574 124.464 427.782 128.638 412.923Z" fill="#E0E0E0"/>
<path d="M420.554 445.414C432.891 458.377 429.084 477.678 412.692 484.896C400.92 490.08 388.657 490.087 376.721 485.265C366.201 481.015 360.333 471.723 361.033 461.362C365.272 461.362 369.533 461.362 373.752 461.362C378.893 475.02 390.995 480.332 404.442 474.93C410.234 472.603 413.784 467.96 413.792 462.552C413.801 456.451 410.074 453.048 404.84 451.282C398.07 448.997 391.124 447.244 384.299 445.115C381.295 444.178 378.257 443.156 375.485 441.698C359.939 433.522 358.516 412.923 372.688 402.405C383.81 394.149 403.754 393.563 415.302 401.176C422.166 405.701 425.512 412.31 426.785 421.28C422.668 421.28 418.782 421.484 414.945 421.137C413.98 421.05 412.763 419.338 412.357 418.137C407.915 404.986 386.071 405.444 379.653 413.514C375.051 419.3 376.123 427.139 382.921 430.416C387.965 432.848 393.647 433.917 398.885 435.995C406.096 438.857 413.156 442.098 420.554 445.414Z" fill="#E0E0E0"/>
<path d="M910.597 444.341C923.351 456.148 921.129 475.977 906.009 483.744C892.983 490.434 879.315 490.485 865.985 484.39C856.846 480.212 852.047 472.068 851.82 461.204C855.866 461.204 859.93 461.058 863.964 461.338C864.696 461.389 865.661 463.102 865.913 464.188C867.111 469.351 870.3 472.881 875.033 474.706C883.027 477.789 891.029 477.694 898.591 473.205C902.952 470.616 905.219 466.674 904.906 461.546C904.611 456.708 901.853 453.421 897.438 451.847C891.496 449.728 885.391 448.072 879.403 446.076C874.997 444.607 870.443 443.348 866.344 441.239C851.52 433.614 849.606 414.049 862.442 403.307C873.769 393.829 895.609 393.115 907.509 401.833C913.428 406.17 916.855 412.647 917.457 421.124C913.801 421.124 910.159 421.32 906.562 420.999C905.54 420.908 904.263 419.488 903.763 418.379C898.691 407.132 880.079 403.794 871.405 412.656C865.996 418.183 867.039 426.948 874.088 430.345C879.282 432.848 885.117 433.984 890.548 436.043C897.2 438.565 903.727 441.414 910.597 444.341Z" fill="#E0E0E0"/>
<path d="M653.314 474.675C653.115 478.607 652.848 482.528 652.562 486.747C633.539 486.747 614.657 486.747 595.5 486.747C595.5 456.953 595.5 427.372 595.5 397.431C614.159 397.431 632.724 397.431 651.729 397.431C651.729 401.025 651.729 404.718 651.729 408.829C637.817 408.829 623.884 408.829 609.529 408.829C609.529 417.743 609.529 426.262 609.529 435.298C622.61 435.298 635.533 435.298 648.763 435.298C648.763 439.369 648.763 442.936 648.763 447.224C635.661 447.224 622.612 447.224 609.314 447.224C609.314 456.842 609.314 465.745 609.314 475.1C623.818 475.1 638.088 475.1 652.778 474.819C653.197 474.538 653.246 474.665 653.314 474.675Z" fill="#E0E0E0"/>
<path d="M264.109 416.896C268.153 423.975 272.031 430.728 276.372 438.289C278.53 434.7 280.265 431.942 281.876 429.112C287.148 419.848 292.52 410.635 297.54 401.235C299.277 397.983 301.311 396.653 304.971 397.031C308.221 397.367 311.533 397.102 315.497 397.102C314.686 398.906 314.272 400.096 313.651 401.165C304.375 417.158 294.995 433.091 285.858 449.162C284.538 451.483 283.807 454.436 283.74 457.12C283.492 466.909 283.642 476.709 283.642 486.785C278.764 486.785 274.5 486.785 269.398 486.785C269.398 479.858 268.942 472.893 269.511 466.013C270.261 456.943 267.7 449.259 262.886 441.633C254.444 428.26 246.746 414.418 238.742 400.769C238.176 399.803 237.661 398.806 236.699 397.052C241.932 397.052 246.516 396.843 251.059 397.188C252.31 397.284 253.804 398.815 254.555 400.066C257.812 405.491 260.834 411.056 264.109 416.896Z" fill="#E0E0E0"/>
<path d="M544.288 409.322C535.036 409.39 525.791 409.39 516.185 409.39C516.185 435.018 516.185 460.628 516.185 486.657C511.454 486.657 507.073 486.657 502.182 486.657C502.182 461.002 502.182 435.267 502.182 408.928C492.648 408.928 483.592 408.928 474.285 408.928C474.285 404.748 474.285 401.178 474.285 397.322C497.431 397.322 520.333 397.322 543.931 397.322C543.931 401.132 543.931 404.751 544.179 408.8C544.428 409.23 544.295 409.255 544.288 409.322Z" fill="#E0E0E0"/>
<path d="M70.4707 200.476C88.5361 215.79 90.7641 241.084 75.9175 259.257C62.4195 275.78 35.9658 278.326 19.1648 264.719C1.8787 250.72 -1.47958 224.804 11.7929 207.83C26.125 189.501 51.6514 186.192 70.4707 200.476Z" fill="#B4D743"/>
<path d="M887.816 112.836C887.268 109.197 888.654 107.854 891.807 106.929C906.332 102.671 920.763 98.0913 935.228 93.6264C936.181 93.3321 937.123 92.9909 938.088 92.7431C947.381 90.357 948.85 91.4663 948.883 100.838C948.907 107.669 948.942 114.5 948.985 121.33C948.986 121.449 949.147 121.566 949.552 122.117C950.68 120.732 951.738 119.406 952.823 118.104C970.495 96.8884 992.738 87.5426 1020.21 92.9369C1035.61 95.9614 1046.43 105.326 1053.25 119.391C1054.03 121.012 1054.79 122.643 1055.79 124.749C1056.93 123.176 1057.89 121.913 1058.79 120.614C1074.75 97.6491 1103.94 86.5399 1130.93 93.1668C1151.61 98.2424 1165.83 115.592 1167.85 139.517C1168.92 152.273 1168.77 165.143 1168.88 177.965C1169.04 197.128 1169.11 216.296 1168.88 235.457C1168.74 247.087 1172.77 255.975 1183.8 260.743C1188.69 262.854 1186.66 266.635 1186.96 270.369C1160.52 270.369 1134.44 270.369 1108.36 270.369C1106.43 263.818 1106.69 262.893 1112.44 259.777C1120.66 255.331 1125.04 248.633 1125.03 239.218C1124.99 210.056 1124.97 180.894 1124.83 151.732C1124.82 148.593 1124.33 145.403 1123.65 142.329C1119.37 122.936 1102.22 113.913 1082.39 120.525C1073.21 123.582 1066.12 129.491 1060.27 136.973C1059.46 138.01 1059.13 139.683 1059.13 141.061C1059.12 172.058 1059.15 203.054 1059.3 234.05C1059.31 237.856 1059.78 241.705 1060.48 245.451C1061.79 252.408 1066.57 256.681 1072.47 259.955C1078.1 263.081 1078.09 263.098 1076.85 270.452C1076.15 270.533 1075.36 270.703 1074.58 270.703C1050.75 270.7 1026.92 270.72 1003.09 270.575C1001.49 270.566 998.625 269.428 998.53 268.572C998.231 265.882 996.968 262.503 1000.93 260.848C1011.97 256.234 1015.65 247.41 1015.52 236C1015.21 207.842 1015.21 179.679 1015.06 151.518C1015.05 149.856 1014.97 148.177 1014.73 146.535C1011.34 123.582 994.788 113.481 972.673 120.801C963.672 123.78 956.585 129.411 950.761 136.702C949.84 137.855 949.359 139.681 949.355 141.198C949.261 172.528 949.295 203.858 949.234 235.188C949.211 246.8 953.025 256.059 964.337 260.994C968.945 263.004 966.596 266.847 967.061 270.344C940.646 270.344 914.608 270.344 888.493 270.344C887.244 265.223 887.807 261.626 893.114 259.246C902.04 255.242 905.563 247.315 905.588 238.102C905.674 205.614 905.6 173.123 905.207 140.637C905.078 129.956 900.941 121.205 890.021 117.018C888.962 116.612 888.534 114.56 887.816 112.836Z" fill="white"/>
<path d="M634.811 214.756C622.419 245.503 610.346 275.965 597.772 306.219C594.54 313.994 590.359 321.556 585.518 328.446C572.566 346.88 550.599 354.202 528.999 347.843C527.794 347.488 526.286 345.464 526.266 344.196C526.062 331.571 526.143 318.941 526.143 305.723C527.681 306.467 528.816 306.975 529.913 307.554C531.384 308.331 532.805 309.201 534.283 309.964C557.691 322.04 573.496 317.142 586.06 293.928C597.033 273.652 596.881 273.718 587.945 253.229C570.858 214.052 553.988 174.779 536.96 135.576C534.644 130.244 532.562 124.638 529.239 119.963C525.756 115.063 521.503 110.178 516.485 107.057C511.768 104.124 510.416 101.196 511.712 96.0059C539.042 96.0059 566.451 96.0059 593.849 96.0059C595.667 103.208 595.58 103.394 589.073 106.296C580.245 110.234 577.353 115.715 580.801 125.298C586.203 140.312 592.34 155.068 598.378 169.845C604.356 184.473 610.596 198.994 616.729 213.559C617.021 214.253 617.387 214.915 618.159 216.492C622.753 204.641 627.064 193.728 631.217 182.755C637.691 165.648 644.392 148.614 650.363 131.331C655.064 117.724 651.855 111.005 638.651 105.093C633.915 102.973 636.918 99.3553 635.725 96.1104C655.254 96.1104 674.44 96.1104 693.678 96.1104C694.893 101.041 694.039 104.254 688.678 106.533C679.787 110.312 674.632 118.1 670.98 126.706C663.247 144.924 655.718 163.23 648.187 181.533C643.693 192.454 639.354 203.438 634.811 214.756Z" fill="white"/>
<path d="M417.479 231.536C439.479 250.341 482.871 251.723 506.66 218.96C512.966 223.089 513.008 223.237 509.764 229.906C495.032 260.192 464.981 277.634 431.333 275.428C393.997 272.98 366.514 252.437 355.193 217.89C347.368 194.007 347.685 169.933 356.34 146.338C369.63 110.106 403.41 88.9803 442.548 91.4443C458.893 92.4733 474.222 96.091 486.927 107.014C505.506 122.987 511.683 144.162 511.848 167.777C511.872 171.263 509.879 171.349 507.318 171.34C494.158 171.296 480.997 171.336 467.837 171.335C444.849 171.333 421.86 171.322 398.872 171.315C397.07 171.315 395.269 171.315 392.841 171.315C394.224 194.465 399.108 215.517 417.479 231.536ZM465.817 157.606C466.477 156.25 467.837 154.81 467.686 153.551C466.618 144.67 466.228 135.535 463.721 127.043C460.278 115.378 452.519 106.895 439.726 105.011C426.045 102.995 414.78 107.55 406.577 118.886C398.34 130.269 395.034 143.367 393.232 157.659C417.373 157.659 441.146 157.659 465.817 157.606Z" fill="white"/>
<path d="M809.794 208C809.585 184.694 809.608 161.883 809.062 139.085C808.822 129.068 804.377 121.14 794.401 117.32C789.65 115.5 792.893 111.588 791.613 108.093C812.293 103.463 831.305 93.8037 853.151 91.6943C853.151 94.838 853.151 96.7914 853.151 98.7449C853.16 143.373 853.127 188.001 853.245 232.628C853.256 237.077 853.877 241.586 854.762 245.957C856.126 252.693 860.811 257.105 866.744 259.787C871.87 262.104 872.439 265.52 871.03 270.47C869.845 270.54 868.723 270.663 867.602 270.663C843.956 270.664 820.309 270.682 796.664 270.567C795.121 270.559 792.308 269.593 792.265 268.93C792.086 266.203 790.521 262.66 794.341 261.035C807.112 255.603 810.155 245.039 809.833 232.478C809.627 224.49 809.794 216.493 809.794 208Z" fill="white"/>
<path d="M341.556 19.8291C342.01 22.3338 342.007 24.7246 342.051 27.5603C339.005 29.1172 335.9 30.1965 332.822 31.3468C321.929 35.4176 312.03 41.3137 303.811 49.4482C281.941 71.0947 260.405 93.0783 238.449 115.217C243.147 122.302 247.558 129.088 252.102 135.783C273.959 167.982 295.814 200.181 317.751 232.325C325.885 244.244 336.214 253.857 349.665 259.36C354.904 261.504 357.033 264.252 355.631 270.014C333.65 270.43 311.84 270.566 290.033 270.371C288.286 270.355 286.003 268.429 284.906 266.771C259.29 228.071 233.803 189.285 208.29 150.516C207.743 149.686 207.164 148.878 206.21 147.494C200.929 153.033 195.735 158.326 190.775 163.831C189.937 164.761 189.854 166.599 189.851 168.019C189.805 189.165 189.926 210.313 189.807 231.459C189.733 244.651 194.445 254.851 207.07 260.25C211.66 262.213 209.85 266.008 210.228 269.635C209.238 270.221 208.267 270.548 207.295 270.548C180.323 270.562 153.351 270.544 126.378 270.518C125.584 270.517 124.789 270.369 123.77 270.267C123.024 265.62 122.621 261.938 128.083 259.58C140.888 254.053 144.258 243.104 144.228 230.157C144.11 178.876 144.23 127.595 144.137 76.3146C144.122 67.8398 143.695 59.3511 143.081 50.8961C142.424 41.8295 137.718 34.9932 129.422 31.5555C124.156 29.3733 122.248 26.3451 123.134 20.624C124.706 20.0271 126.336 19.6981 127.967 19.6951C155.011 19.645 182.054 19.6358 209.569 19.6006C211.725 26.9158 211.538 27.57 205.207 30.8163C196.172 35.449 190.418 42.6318 190.308 52.8159C189.985 82.925 190.193 113.04 190.193 143.508C191.012 142.79 191.849 142.162 192.563 141.416C215.839 117.118 239.165 92.868 262.316 68.4512C266.992 63.5186 271.484 58.2685 275.203 52.6015C281.936 42.3424 279.286 34.849 267.947 30.106C266.727 29.5955 265.457 29.2037 263.841 28.6246C263.841 26.0413 263.841 23.4005 263.905 20.3011C289.678 19.8001 315.388 19.7577 341.556 19.8291Z" fill="white"/>
<path d="M846.913 23.0102C857.392 32.2513 860.283 43.3565 855.366 54.5593C850.745 65.0895 839.487 71.1867 827.077 69.8802C814.454 68.5511 804.767 60.5752 802.488 49.2107C800.416 38.8718 803.145 29.9453 811.783 23.5191C821.41 16.3573 831.867 15.2336 842.82 20.4119C844.162 21.0464 845.355 21.9956 846.913 23.0102Z" fill="white"/>
<path d="M1258.01 157.66C1253.38 157.66 1249.25 157.66 1245.16 157.66C1242.78 136.438 1258.92 110.343 1277.07 105.696C1292.58 101.728 1306.25 108.034 1313.05 122.531C1318.11 133.317 1319.41 144.79 1318.78 157.66C1298.58 157.66 1278.55 157.66 1258.01 157.66ZM1268.5 151.982C1282.16 151.981 1295.82 151.981 1309.48 151.981C1311.65 151.981 1314.33 152.298 1313.89 148.968C1313.11 143.058 1312.46 137.056 1310.87 131.342C1306.52 115.779 1295.95 107.053 1278.53 110.923C1265.58 113.799 1259.7 123.385 1255.16 134.194C1252.87 139.652 1251.87 145.655 1250.12 151.982C1256.88 151.982 1262.19 151.982 1268.5 151.982Z" fill="white"/>
<path d="M465.366 157.633C441.144 157.659 417.372 157.659 393.23 157.659C395.032 143.367 398.338 130.269 406.575 118.886C414.779 107.55 426.043 102.995 439.725 105.011C452.518 106.896 460.276 115.378 463.72 127.043C466.227 135.536 466.617 144.671 467.684 153.551C467.835 154.81 466.476 156.25 465.366 157.633ZM445.157 112.035C437.026 108.742 428.992 109.002 421.209 113.017C412.288 117.62 407.349 125.581 404.089 134.632C402.122 140.09 400.857 145.801 399.112 151.98C419.855 151.98 439.158 152.042 458.458 151.829C459.644 151.816 461.766 149.66 461.804 148.45C461.931 144.385 461.595 140.25 460.923 136.228C459.251 126.224 454.83 117.83 445.157 112.035Z" fill="white"/>
</g>
<defs>
<clipPath id="clip0_304_348">
<rect width="1365" height="490" fill="white"/>
</clipPath>
</defs>
</svg>
